<svg xmlns="http://www.w3.org/2000/svg" height="28" viewBox="4 4 24 24" width="28" class="game-icon" data-testid="icon-help"><path fill="var(--color-tone-1)" d="M14.833 23h2.334v-2.333h-2.334V23ZM16 4.333C9.56 4.333 4.333 9.56 4.333 16c0 6.44 5.227 11.667 11.667 11.667 6.44 0 11.667-5.227 11.667-11.667C27.667 9.56 22.44 4.333 16 4.333Zm0 21c-5.145 0-9.333-4.188-9.333-9.333 0-5.145 4.188-9.333 9.333-9.333 5.145 0 9.333 4.188 9.333 9.333 0 5.145-4.188 9.333-9.333 9.333ZM16 9a4.665 4.665 0 0 0-4.667 4.667h2.334A2.34 2.34 0 0 1 16 11.333a2.34 2.34 0 0 1 2.333 2.334c0 2.333-3.5 2.041-3.5 5.833h2.334c0-2.625 3.5-2.917 3.5-5.833A4.665 4.665 0 0 0 16 9Z"/></svg>